# xmcd CD database file
#
# Track frame offsets:
#	150
#	19833
#	31915
#	48123
#	64725
#	75030
#	87783
#	99644
#	113738
#	126066
#	140814
#	154456
#	166171
#	180574
#	192453
#	203034
#	217992
#	230739
#
# Disc length: 3229 seconds
#
# Revision: 2
# Processed by: cddbd v1.5.1PL0 Copyright (c) Steve Scherf et al.
# Submitted via: CDex 1.51
#
DISCID=eb0c9b12
DTITLE=Various Artist - Golden Country - Disc 1
DYEAR=1900
DGENRE=Country
TTITLE0=Bellamy Brothers - If I said you had a beautiful body
TTITLE1=Crystal Gayle - Don't it make my brown eyes blue
TTITLE2=Randy Vanwarmer - Just when I need you most
TTITLE3=John Denver - Thank god I'm a country boy
TTITLE4=Loretty Lynn - Somebody somewhere
TTITLE5=Hank Thompson - The wild side of life
TTITLE6=Tammy Wynette - Stand by your man
TTITLE7=T. Graham Brown - Come hell or high water
TTITLE8=Johnny Cash - Folsom prison blues
TTITLE9=Slim Whitman - Mocking bird hill
TTITLE10=Bobby Bare - Marie Laveau
TTITLE11=Boxcar Willie - Six days on the road
TTITLE12=Mickey Gilley - Paradise tonight
TTITLE13=Skeeter Davis - End of the world
TTITLE14=Eddy Raven - I got Mexico
TTITLE15=Johnny Rodriguez - Desperado
TTITLE16=Gatlin Brothers - All the gold in California
TTITLE17=Patsy Cline - Walking after midnight
EXTD=
EXTT0=
EXTT1=
EXTT2=
EXTT3=
EXTT4=
EXTT5=
EXTT6=
EXTT7=
EXTT8=
EXTT9=
EXTT10=
EXTT11=
EXTT12=
EXTT13=
EXTT14=
EXTT15=
EXTT16=
EXTT17=
PLAYORDER=
